M48
INCH,TZ
T1C0.0197
T2C0.0394
T3C0.1575
%
G90
G05
T1
X49803Y-39587
X49823Y-35157
X49941Y-37382
X52323Y-35157
X52323Y-39626
X54764Y-35157
X54764Y-39646
X55965Y-35236
X56417Y-36555
X57106Y-39173
X58858Y-40787
X59685Y-37854
X59724Y-36752
X61358Y-37343
X61378Y-35689
X61417Y-34055
X61437Y-40768
T2
X60423Y-35344
X60423Y-36344
X60423Y-37344
X60423Y-38344
X60423Y-39344
T3
X54154Y-37382
T0
M30
