G04 #@! TF.GenerationSoftware,KiCad,Pcbnew,6.0.7*
G04 #@! TF.CreationDate,2022-09-09T10:48:33-06:00*
G04 #@! TF.ProjectId,sdt_pa_diode,7364745f-7061-45f6-9469-6f64652e6b69,rev?*
G04 #@! TF.SameCoordinates,Original*
G04 #@! TF.FileFunction,Copper,L1,Top*
G04 #@! TF.FilePolarity,Positive*
%FSLAX46Y46*%
G04 Gerber Fmt 4.6, Leading zero omitted, Abs format (unit mm)*
G04 Created by KiCad (PCBNEW 6.0.7) date 2022-09-09 10:48:33*
%MOMM*%
%LPD*%
G01*
G04 APERTURE LIST*
G04 #@! TA.AperFunction,SMDPad,CuDef*
%ADD10R,0.900000X1.200000*%
G04 #@! TD*
G04 #@! TA.AperFunction,ComponentPad*
%ADD11R,1.700000X1.700000*%
G04 #@! TD*
G04 #@! TA.AperFunction,ComponentPad*
%ADD12O,1.700000X1.700000*%
G04 #@! TD*
G04 #@! TA.AperFunction,SMDPad,CuDef*
%ADD13R,1.200000X0.900000*%
G04 #@! TD*
G04 #@! TA.AperFunction,ViaPad*
%ADD14C,1.000000*%
G04 #@! TD*
G04 #@! TA.AperFunction,ViaPad*
%ADD15C,6.000000*%
G04 #@! TD*
G04 #@! TA.AperFunction,Conductor*
%ADD16C,0.500000*%
G04 #@! TD*
G04 APERTURE END LIST*
D10*
X131200000Y-87400000D03*
X134500000Y-87400000D03*
X140800000Y-102550000D03*
X137500000Y-102550000D03*
X137500000Y-87400000D03*
X140800000Y-87400000D03*
D11*
X153475000Y-89775000D03*
D12*
X153475000Y-92315000D03*
X153475000Y-94855000D03*
X153475000Y-97395000D03*
X153475000Y-99935000D03*
D13*
X124950000Y-96650000D03*
X124950000Y-93350000D03*
D10*
X124950000Y-87400000D03*
X128250000Y-87400000D03*
X147000000Y-102550000D03*
X143700000Y-102550000D03*
X134550000Y-102550000D03*
X131250000Y-102550000D03*
X143700000Y-87400000D03*
X147000000Y-87400000D03*
X128250000Y-102550000D03*
X124950000Y-102550000D03*
D14*
X155900000Y-90650000D03*
X151700000Y-93350000D03*
X143300000Y-92850000D03*
X139100000Y-89300000D03*
X151600000Y-96150000D03*
X132900000Y-89300000D03*
X142150000Y-89500000D03*
X132900000Y-100650000D03*
X149500000Y-103600000D03*
X156000000Y-86500000D03*
X155850000Y-94850000D03*
X139100000Y-100700000D03*
X156050000Y-103550000D03*
X126850000Y-94950000D03*
X126500000Y-100550000D03*
X145050000Y-99500000D03*
X126550000Y-89300000D03*
D15*
X137550000Y-94950000D03*
D16*
X151100000Y-87400000D02*
X153475000Y-89775000D01*
X147000000Y-87400000D02*
X151100000Y-87400000D01*
X140800000Y-87400000D02*
X143700000Y-87400000D01*
X134500000Y-87400000D02*
X137500000Y-87400000D01*
X128250000Y-87400000D02*
X131200000Y-87400000D01*
X124950000Y-87400000D02*
X124950000Y-93350000D01*
X124950000Y-96650000D02*
X124950000Y-102550000D01*
X128250000Y-102550000D02*
X131250000Y-102550000D01*
X134550000Y-102550000D02*
X137500000Y-102550000D01*
X140800000Y-102550000D02*
X143700000Y-102550000D01*
G04 #@! TA.AperFunction,Conductor*
G36*
X156933621Y-85528502D02*
G01*
X156980114Y-85582158D01*
X156991500Y-85634500D01*
X156991500Y-104365500D01*
X156971498Y-104433621D01*
X156917842Y-104480114D01*
X156865500Y-104491500D01*
X123134500Y-104491500D01*
X123066379Y-104471498D01*
X123019886Y-104417842D01*
X123008500Y-104365500D01*
X123008500Y-97148134D01*
X123841500Y-97148134D01*
X123848255Y-97210316D01*
X123899385Y-97346705D01*
X123986739Y-97463261D01*
X124103295Y-97550615D01*
X124111704Y-97553767D01*
X124119575Y-97558077D01*
X124118664Y-97559741D01*
X124166490Y-97595663D01*
X124191193Y-97662224D01*
X124191500Y-97671009D01*
X124191500Y-101482671D01*
X124171498Y-101550792D01*
X124149593Y-101574332D01*
X124150269Y-101575008D01*
X124143919Y-101581358D01*
X124136739Y-101586739D01*
X124049385Y-101703295D01*
X123998255Y-101839684D01*
X123991500Y-101901866D01*
X123991500Y-103198134D01*
X123998255Y-103260316D01*
X124049385Y-103396705D01*
X124136739Y-103513261D01*
X124253295Y-103600615D01*
X124389684Y-103651745D01*
X124451866Y-103658500D01*
X125448134Y-103658500D01*
X125510316Y-103651745D01*
X125646705Y-103600615D01*
X125763261Y-103513261D01*
X125850615Y-103396705D01*
X125901745Y-103260316D01*
X125908500Y-103198134D01*
X127291500Y-103198134D01*
X127298255Y-103260316D01*
X127349385Y-103396705D01*
X127436739Y-103513261D01*
X127553295Y-103600615D01*
X127689684Y-103651745D01*
X127751866Y-103658500D01*
X128748134Y-103658500D01*
X128810316Y-103651745D01*
X128946705Y-103600615D01*
X129063261Y-103513261D01*
X129150615Y-103396705D01*
X129153767Y-103388296D01*
X129158077Y-103380425D01*
X129159741Y-103381336D01*
X129195663Y-103333510D01*
X129262224Y-103308807D01*
X129271009Y-103308500D01*
X130228991Y-103308500D01*
X130297112Y-103328502D01*
X130343605Y-103382158D01*
X130345903Y-103387694D01*
X130346232Y-103388296D01*
X130349385Y-103396705D01*
X130436739Y-103513261D01*
X130553295Y-103600615D01*
X130689684Y-103651745D01*
X130751866Y-103658500D01*
X131748134Y-103658500D01*
X131810316Y-103651745D01*
X131946705Y-103600615D01*
X132063261Y-103513261D01*
X132150615Y-103396705D01*
X132201745Y-103260316D01*
X132208500Y-103198134D01*
X133591500Y-103198134D01*
X133598255Y-103260316D01*
X133649385Y-103396705D01*
X133736739Y-103513261D01*
X133853295Y-103600615D01*
X133989684Y-103651745D01*
X134051866Y-103658500D01*
X135048134Y-103658500D01*
X135110316Y-103651745D01*
X135246705Y-103600615D01*
X135363261Y-103513261D01*
X135450615Y-103396705D01*
X135453767Y-103388296D01*
X135458077Y-103380425D01*
X135459741Y-103381336D01*
X135495663Y-103333510D01*
X135562224Y-103308807D01*
X135571009Y-103308500D01*
X136478991Y-103308500D01*
X136547112Y-103328502D01*
X136593605Y-103382158D01*
X136595903Y-103387694D01*
X136596232Y-103388296D01*
X136599385Y-103396705D01*
X136686739Y-103513261D01*
X136803295Y-103600615D01*
X136939684Y-103651745D01*
X137001866Y-103658500D01*
X137998134Y-103658500D01*
X138060316Y-103651745D01*
X138196705Y-103600615D01*
X138313261Y-103513261D01*
X138400615Y-103396705D01*
X138451745Y-103260316D01*
X138458500Y-103198134D01*
X139841500Y-103198134D01*
X139848255Y-103260316D01*
X139899385Y-103396705D01*
X139986739Y-103513261D01*
X140103295Y-103600615D01*
X140239684Y-103651745D01*
X140301866Y-103658500D01*
X141298134Y-103658500D01*
X141360316Y-103651745D01*
X141496705Y-103600615D01*
X141613261Y-103513261D01*
X141700615Y-103396705D01*
X141703767Y-103388296D01*
X141708077Y-103380425D01*
X141709741Y-103381336D01*
X141745663Y-103333510D01*
X141812224Y-103308807D01*
X141821009Y-103308500D01*
X142678991Y-103308500D01*
X142747112Y-103328502D01*
X142793605Y-103382158D01*
X142795903Y-103387694D01*
X142796232Y-103388296D01*
X142799385Y-103396705D01*
X142886739Y-103513261D01*
X143003295Y-103600615D01*
X143139684Y-103651745D01*
X143201866Y-103658500D01*
X144198134Y-103658500D01*
X144260316Y-103651745D01*
X144396705Y-103600615D01*
X144513261Y-103513261D01*
X144600615Y-103396705D01*
X144651745Y-103260316D01*
X144658500Y-103198134D01*
X144658500Y-103194669D01*
X146042001Y-103194669D01*
X146042371Y-103201490D01*
X146047895Y-103252352D01*
X146051521Y-103267604D01*
X146096676Y-103388054D01*
X146105214Y-103403649D01*
X146181715Y-103505724D01*
X146194276Y-103518285D01*
X146296351Y-103594786D01*
X146311946Y-103603324D01*
X146432394Y-103648478D01*
X146447649Y-103652105D01*
X146498514Y-103657631D01*
X146505328Y-103658000D01*
X146727885Y-103658000D01*
X146743124Y-103653525D01*
X146744329Y-103652135D01*
X146746000Y-103644452D01*
X146746000Y-103639884D01*
X147254000Y-103639884D01*
X147258475Y-103655123D01*
X147259865Y-103656328D01*
X147267548Y-103657999D01*
X147494669Y-103657999D01*
X147501490Y-103657629D01*
X147552352Y-103652105D01*
X147567604Y-103648479D01*
X147688054Y-103603324D01*
X147703649Y-103594786D01*
X147805724Y-103518285D01*
X147818285Y-103505724D01*
X147894786Y-103403649D01*
X147903324Y-103388054D01*
X147948478Y-103267606D01*
X147952105Y-103252351D01*
X147957631Y-103201486D01*
X147958000Y-103194672D01*
X147958000Y-102822115D01*
X147953525Y-102806876D01*
X147952135Y-102805671D01*
X147944452Y-102804000D01*
X147272115Y-102804000D01*
X147256876Y-102808475D01*
X147255671Y-102809865D01*
X147254000Y-102817548D01*
X147254000Y-103639884D01*
X146746000Y-103639884D01*
X146746000Y-102822115D01*
X146741525Y-102806876D01*
X146740135Y-102805671D01*
X146732452Y-102804000D01*
X146060116Y-102804000D01*
X146044877Y-102808475D01*
X146043672Y-102809865D01*
X146042001Y-102817548D01*
X146042001Y-103194669D01*
X144658500Y-103194669D01*
X144658500Y-102277885D01*
X146042000Y-102277885D01*
X146046475Y-102293124D01*
X146047865Y-102294329D01*
X146055548Y-102296000D01*
X146727885Y-102296000D01*
X146743124Y-102291525D01*
X146744329Y-102290135D01*
X146746000Y-102282452D01*
X146746000Y-102277885D01*
X147254000Y-102277885D01*
X147258475Y-102293124D01*
X147259865Y-102294329D01*
X147267548Y-102296000D01*
X147939884Y-102296000D01*
X147955123Y-102291525D01*
X147956328Y-102290135D01*
X147957999Y-102282452D01*
X147957999Y-101905331D01*
X147957629Y-101898510D01*
X147952105Y-101847648D01*
X147948479Y-101832396D01*
X147903324Y-101711946D01*
X147894786Y-101696351D01*
X147818285Y-101594276D01*
X147805724Y-101581715D01*
X147703649Y-101505214D01*
X147688054Y-101496676D01*
X147567606Y-101451522D01*
X147552351Y-101447895D01*
X147501486Y-101442369D01*
X147494672Y-101442000D01*
X147272115Y-101442000D01*
X147256876Y-101446475D01*
X147255671Y-101447865D01*
X147254000Y-101455548D01*
X147254000Y-102277885D01*
X146746000Y-102277885D01*
X146746000Y-101460116D01*
X146741525Y-101444877D01*
X146740135Y-101443672D01*
X146732452Y-101442001D01*
X146505331Y-101442001D01*
X146498510Y-101442371D01*
X146447648Y-101447895D01*
X146432396Y-101451521D01*
X146311946Y-101496676D01*
X146296351Y-101505214D01*
X146194276Y-101581715D01*
X146181715Y-101594276D01*
X146105214Y-101696351D01*
X146096676Y-101711946D01*
X146051522Y-101832394D01*
X146047895Y-101847649D01*
X146042369Y-101898514D01*
X146042000Y-101905328D01*
X146042000Y-102277885D01*
X144658500Y-102277885D01*
X144658500Y-101901866D01*
X144651745Y-101839684D01*
X144600615Y-101703295D01*
X144513261Y-101586739D01*
X144396705Y-101499385D01*
X144260316Y-101448255D01*
X144198134Y-101441500D01*
X143201866Y-101441500D01*
X143139684Y-101448255D01*
X143003295Y-101499385D01*
X142886739Y-101586739D01*
X142799385Y-101703295D01*
X142796233Y-101711703D01*
X142791923Y-101719575D01*
X142790259Y-101718664D01*
X142754337Y-101766490D01*
X142687776Y-101791193D01*
X142678991Y-101791500D01*
X141821009Y-101791500D01*
X141752888Y-101771498D01*
X141706395Y-101717842D01*
X141704097Y-101712306D01*
X141703767Y-101711703D01*
X141700615Y-101703295D01*
X141613261Y-101586739D01*
X141496705Y-101499385D01*
X141360316Y-101448255D01*
X141298134Y-101441500D01*
X140301866Y-101441500D01*
X140239684Y-101448255D01*
X140103295Y-101499385D01*
X139986739Y-101586739D01*
X139899385Y-101703295D01*
X139848255Y-101839684D01*
X139841500Y-101901866D01*
X139841500Y-103198134D01*
X138458500Y-103198134D01*
X138458500Y-101901866D01*
X138451745Y-101839684D01*
X138400615Y-101703295D01*
X138313261Y-101586739D01*
X138196705Y-101499385D01*
X138060316Y-101448255D01*
X137998134Y-101441500D01*
X137001866Y-101441500D01*
X136939684Y-101448255D01*
X136803295Y-101499385D01*
X136686739Y-101586739D01*
X136599385Y-101703295D01*
X136596233Y-101711703D01*
X136591923Y-101719575D01*
X136590259Y-101718664D01*
X136554337Y-101766490D01*
X136487776Y-101791193D01*
X136478991Y-101791500D01*
X135571009Y-101791500D01*
X135502888Y-101771498D01*
X135456395Y-101717842D01*
X135454097Y-101712306D01*
X135453767Y-101711703D01*
X135450615Y-101703295D01*
X135363261Y-101586739D01*
X135246705Y-101499385D01*
X135110316Y-101448255D01*
X135048134Y-101441500D01*
X134051866Y-101441500D01*
X133989684Y-101448255D01*
X133853295Y-101499385D01*
X133736739Y-101586739D01*
X133649385Y-101703295D01*
X133598255Y-101839684D01*
X133591500Y-101901866D01*
X133591500Y-103198134D01*
X132208500Y-103198134D01*
X132208500Y-101901866D01*
X132201745Y-101839684D01*
X132150615Y-101703295D01*
X132063261Y-101586739D01*
X131946705Y-101499385D01*
X131810316Y-101448255D01*
X131748134Y-101441500D01*
X130751866Y-101441500D01*
X130689684Y-101448255D01*
X130553295Y-101499385D01*
X130436739Y-101586739D01*
X130349385Y-101703295D01*
X130346233Y-101711703D01*
X130341923Y-101719575D01*
X130340259Y-101718664D01*
X130304337Y-101766490D01*
X130237776Y-101791193D01*
X130228991Y-101791500D01*
X129271009Y-101791500D01*
X129202888Y-101771498D01*
X129156395Y-101717842D01*
X129154097Y-101712306D01*
X129153767Y-101711703D01*
X129150615Y-101703295D01*
X129063261Y-101586739D01*
X128946705Y-101499385D01*
X128810316Y-101448255D01*
X128748134Y-101441500D01*
X127751866Y-101441500D01*
X127689684Y-101448255D01*
X127553295Y-101499385D01*
X127436739Y-101586739D01*
X127349385Y-101703295D01*
X127298255Y-101839684D01*
X127291500Y-101901866D01*
X127291500Y-103198134D01*
X125908500Y-103198134D01*
X125908500Y-101901866D01*
X125901745Y-101839684D01*
X125850615Y-101703295D01*
X125763261Y-101586739D01*
X125756081Y-101581358D01*
X125749731Y-101575008D01*
X125751366Y-101573373D01*
X125716421Y-101526641D01*
X125708500Y-101482671D01*
X125708500Y-99901695D01*
X152112251Y-99901695D01*
X152112548Y-99906848D01*
X152112548Y-99906851D01*
X152118011Y-100001590D01*
X152125110Y-100124715D01*
X152126247Y-100129761D01*
X152126248Y-100129767D01*
X152146119Y-100217939D01*
X152174222Y-100342639D01*
X152258266Y-100549616D01*
X152374987Y-100740088D01*
X152521250Y-100908938D01*
X152693126Y-101051632D01*
X152886000Y-101164338D01*
X153094692Y-101244030D01*
X153099760Y-101245061D01*
X153099763Y-101245062D01*
X153207017Y-101266883D01*
X153313597Y-101288567D01*
X153318772Y-101288757D01*
X153318774Y-101288757D01*
X153531673Y-101296564D01*
X153531677Y-101296564D01*
X153536837Y-101296753D01*
X153541957Y-101296097D01*
X153541959Y-101296097D01*
X153753288Y-101269025D01*
X153753289Y-101269025D01*
X153758416Y-101268368D01*
X153763366Y-101266883D01*
X153967429Y-101205661D01*
X153967434Y-101205659D01*
X153972384Y-101204174D01*
X154172994Y-101105896D01*
X154354860Y-100976173D01*
X154513096Y-100818489D01*
X154572594Y-100735689D01*
X154640435Y-100641277D01*
X154643453Y-100637077D01*
X154742430Y-100436811D01*
X154807370Y-100223069D01*
X154836529Y-100001590D01*
X154838156Y-99935000D01*
X154819852Y-99712361D01*
X154765431Y-99495702D01*
X154676354Y-99290840D01*
X154555014Y-99103277D01*
X154404670Y-98938051D01*
X154400619Y-98934852D01*
X154400615Y-98934848D01*
X154233414Y-98802800D01*
X154233410Y-98802798D01*
X154229359Y-98799598D01*
X154188053Y-98776796D01*
X154138084Y-98726364D01*
X154123312Y-98656921D01*
X154148428Y-98590516D01*
X154175780Y-98563909D01*
X154219603Y-98532650D01*
X154354860Y-98436173D01*
X154513096Y-98278489D01*
X154572594Y-98195689D01*
X154640435Y-98101277D01*
X154643453Y-98097077D01*
X154742430Y-97896811D01*
X154807370Y-97683069D01*
X154836529Y-97461590D01*
X154838156Y-97395000D01*
X154819852Y-97172361D01*
X154765431Y-96955702D01*
X154676354Y-96750840D01*
X154555014Y-96563277D01*
X154404670Y-96398051D01*
X154400619Y-96394852D01*
X154400615Y-96394848D01*
X154233414Y-96262800D01*
X154233410Y-96262798D01*
X154229359Y-96259598D01*
X154188053Y-96236796D01*
X154138084Y-96186364D01*
X154123312Y-96116921D01*
X154148428Y-96050516D01*
X154175780Y-96023909D01*
X154219603Y-95992650D01*
X154354860Y-95896173D01*
X154513096Y-95738489D01*
X154572594Y-95655689D01*
X154640435Y-95561277D01*
X154643453Y-95557077D01*
X154742430Y-95356811D01*
X154807370Y-95143069D01*
X154836529Y-94921590D01*
X154838156Y-94855000D01*
X154819852Y-94632361D01*
X154765431Y-94415702D01*
X154676354Y-94210840D01*
X154574819Y-94053891D01*
X154557822Y-94027617D01*
X154557820Y-94027614D01*
X154555014Y-94023277D01*
X154404670Y-93858051D01*
X154400619Y-93854852D01*
X154400615Y-93854848D01*
X154233414Y-93722800D01*
X154233410Y-93722798D01*
X154229359Y-93719598D01*
X154187569Y-93696529D01*
X154137598Y-93646097D01*
X154122826Y-93576654D01*
X154147942Y-93510248D01*
X154175294Y-93483641D01*
X154350328Y-93358792D01*
X154358200Y-93352139D01*
X154509052Y-93201812D01*
X154515730Y-93193965D01*
X154640003Y-93021020D01*
X154645313Y-93012183D01*
X154739670Y-92821267D01*
X154743469Y-92811672D01*
X154805377Y-92607910D01*
X154807555Y-92597837D01*
X154808986Y-92586962D01*
X154806775Y-92572778D01*
X154793617Y-92569000D01*
X152158225Y-92569000D01*
X152144694Y-92572973D01*
X152143257Y-92582966D01*
X152173565Y-92717446D01*
X152176645Y-92727275D01*
X152256770Y-92924603D01*
X152261413Y-92933794D01*
X152372694Y-93115388D01*
X152378777Y-93123699D01*
X152518213Y-93284667D01*
X152525580Y-93291883D01*
X152689434Y-93427916D01*
X152697881Y-93433831D01*
X152766969Y-93474203D01*
X152815693Y-93525842D01*
X152828764Y-93595625D01*
X152802033Y-93661396D01*
X152761584Y-93694752D01*
X152748607Y-93701507D01*
X152744474Y-93704610D01*
X152744471Y-93704612D01*
X152720247Y-93722800D01*
X152569965Y-93835635D01*
X152415629Y-93997138D01*
X152289743Y-94181680D01*
X152195688Y-94384305D01*
X152135989Y-94599570D01*
X152112251Y-94821695D01*
X152112548Y-94826848D01*
X152112548Y-94826851D01*
X152118011Y-94921590D01*
X152125110Y-95044715D01*
X152126247Y-95049761D01*
X152126248Y-95049767D01*
X152146119Y-95137939D01*
X152174222Y-95262639D01*
X152258266Y-95469616D01*
X152374987Y-95660088D01*
X152521250Y-95828938D01*
X152693126Y-95971632D01*
X152763595Y-96012811D01*
X152766445Y-96014476D01*
X152815169Y-96066114D01*
X152828240Y-96135897D01*
X152801509Y-96201669D01*
X152761055Y-96235027D01*
X152748607Y-96241507D01*
X152744474Y-96244610D01*
X152744471Y-96244612D01*
X152720247Y-96262800D01*
X152569965Y-96375635D01*
X152415629Y-96537138D01*
X152289743Y-96721680D01*
X152195688Y-96924305D01*
X152135989Y-97139570D01*
X152112251Y-97361695D01*
X152112548Y-97366848D01*
X152112548Y-97366851D01*
X152118011Y-97461590D01*
X152125110Y-97584715D01*
X152126247Y-97589761D01*
X152126248Y-97589767D01*
X152144557Y-97671009D01*
X152174222Y-97802639D01*
X152258266Y-98009616D01*
X152374987Y-98200088D01*
X152521250Y-98368938D01*
X152693126Y-98511632D01*
X152763595Y-98552811D01*
X152766445Y-98554476D01*
X152815169Y-98606114D01*
X152828240Y-98675897D01*
X152801509Y-98741669D01*
X152761055Y-98775027D01*
X152748607Y-98781507D01*
X152744474Y-98784610D01*
X152744471Y-98784612D01*
X152720247Y-98802800D01*
X152569965Y-98915635D01*
X152415629Y-99077138D01*
X152289743Y-99261680D01*
X152195688Y-99464305D01*
X152135989Y-99679570D01*
X152112251Y-99901695D01*
X125708500Y-99901695D01*
X125708500Y-97671009D01*
X125728502Y-97602888D01*
X125782158Y-97556395D01*
X125787694Y-97554097D01*
X125788296Y-97553768D01*
X125796705Y-97550615D01*
X125913261Y-97463261D01*
X126000615Y-97346705D01*
X126051745Y-97210316D01*
X126058500Y-97148134D01*
X126058500Y-96151866D01*
X126051745Y-96089684D01*
X126000615Y-95953295D01*
X125913261Y-95836739D01*
X125796705Y-95749385D01*
X125660316Y-95698255D01*
X125598134Y-95691500D01*
X124301866Y-95691500D01*
X124239684Y-95698255D01*
X124103295Y-95749385D01*
X123986739Y-95836739D01*
X123899385Y-95953295D01*
X123848255Y-96089684D01*
X123841500Y-96151866D01*
X123841500Y-97148134D01*
X123008500Y-97148134D01*
X123008500Y-93848134D01*
X123841500Y-93848134D01*
X123848255Y-93910316D01*
X123899385Y-94046705D01*
X123986739Y-94163261D01*
X124103295Y-94250615D01*
X124239684Y-94301745D01*
X124301866Y-94308500D01*
X125598134Y-94308500D01*
X125660316Y-94301745D01*
X125796705Y-94250615D01*
X125913261Y-94163261D01*
X126000615Y-94046705D01*
X126051745Y-93910316D01*
X126058500Y-93848134D01*
X126058500Y-92851866D01*
X126051745Y-92789684D01*
X126000615Y-92653295D01*
X125913261Y-92536739D01*
X125796705Y-92449385D01*
X125788296Y-92446233D01*
X125780425Y-92441923D01*
X125781336Y-92440259D01*
X125733510Y-92404337D01*
X125708807Y-92337776D01*
X125708500Y-92328991D01*
X125708500Y-88467329D01*
X125728502Y-88399208D01*
X125750407Y-88375668D01*
X125749731Y-88374992D01*
X125756081Y-88368642D01*
X125763261Y-88363261D01*
X125850615Y-88246705D01*
X125901745Y-88110316D01*
X125908500Y-88048134D01*
X127291500Y-88048134D01*
X127298255Y-88110316D01*
X127349385Y-88246705D01*
X127436739Y-88363261D01*
X127553295Y-88450615D01*
X127689684Y-88501745D01*
X127751866Y-88508500D01*
X128748134Y-88508500D01*
X128810316Y-88501745D01*
X128946705Y-88450615D01*
X129063261Y-88363261D01*
X129150615Y-88246705D01*
X129153767Y-88238296D01*
X129158077Y-88230425D01*
X129159741Y-88231336D01*
X129195663Y-88183510D01*
X129262224Y-88158807D01*
X129271009Y-88158500D01*
X130178991Y-88158500D01*
X130247112Y-88178502D01*
X130293605Y-88232158D01*
X130295903Y-88237694D01*
X130296232Y-88238296D01*
X130299385Y-88246705D01*
X130386739Y-88363261D01*
X130503295Y-88450615D01*
X130639684Y-88501745D01*
X130701866Y-88508500D01*
X131698134Y-88508500D01*
X131760316Y-88501745D01*
X131896705Y-88450615D01*
X132013261Y-88363261D01*
X132100615Y-88246705D01*
X132151745Y-88110316D01*
X132158500Y-88048134D01*
X133541500Y-88048134D01*
X133548255Y-88110316D01*
X133599385Y-88246705D01*
X133686739Y-88363261D01*
X133803295Y-88450615D01*
X133939684Y-88501745D01*
X134001866Y-88508500D01*
X134998134Y-88508500D01*
X135060316Y-88501745D01*
X135196705Y-88450615D01*
X135313261Y-88363261D01*
X135400615Y-88246705D01*
X135403767Y-88238296D01*
X135408077Y-88230425D01*
X135409741Y-88231336D01*
X135445663Y-88183510D01*
X135512224Y-88158807D01*
X135521009Y-88158500D01*
X136478991Y-88158500D01*
X136547112Y-88178502D01*
X136593605Y-88232158D01*
X136595903Y-88237694D01*
X136596232Y-88238296D01*
X136599385Y-88246705D01*
X136686739Y-88363261D01*
X136803295Y-88450615D01*
X136939684Y-88501745D01*
X137001866Y-88508500D01*
X137998134Y-88508500D01*
X138060316Y-88501745D01*
X138196705Y-88450615D01*
X138313261Y-88363261D01*
X138400615Y-88246705D01*
X138451745Y-88110316D01*
X138458500Y-88048134D01*
X139841500Y-88048134D01*
X139848255Y-88110316D01*
X139899385Y-88246705D01*
X139986739Y-88363261D01*
X140103295Y-88450615D01*
X140239684Y-88501745D01*
X140301866Y-88508500D01*
X141298134Y-88508500D01*
X141360316Y-88501745D01*
X141496705Y-88450615D01*
X141613261Y-88363261D01*
X141700615Y-88246705D01*
X141703767Y-88238296D01*
X141708077Y-88230425D01*
X141709741Y-88231336D01*
X141745663Y-88183510D01*
X141812224Y-88158807D01*
X141821009Y-88158500D01*
X142678991Y-88158500D01*
X142747112Y-88178502D01*
X142793605Y-88232158D01*
X142795903Y-88237694D01*
X142796232Y-88238296D01*
X142799385Y-88246705D01*
X142886739Y-88363261D01*
X143003295Y-88450615D01*
X143139684Y-88501745D01*
X143201866Y-88508500D01*
X144198134Y-88508500D01*
X144260316Y-88501745D01*
X144396705Y-88450615D01*
X144513261Y-88363261D01*
X144600615Y-88246705D01*
X144651745Y-88110316D01*
X144658500Y-88048134D01*
X146041500Y-88048134D01*
X146048255Y-88110316D01*
X146099385Y-88246705D01*
X146186739Y-88363261D01*
X146303295Y-88450615D01*
X146439684Y-88501745D01*
X146501866Y-88508500D01*
X147498134Y-88508500D01*
X147560316Y-88501745D01*
X147696705Y-88450615D01*
X147813261Y-88363261D01*
X147900615Y-88246705D01*
X147903767Y-88238296D01*
X147908077Y-88230425D01*
X147909741Y-88231336D01*
X147945663Y-88183510D01*
X148012224Y-88158807D01*
X148021009Y-88158500D01*
X150733629Y-88158500D01*
X150801750Y-88178502D01*
X150822724Y-88195405D01*
X152079595Y-89452276D01*
X152113621Y-89514588D01*
X152116500Y-89541371D01*
X152116500Y-90673134D01*
X152123255Y-90735316D01*
X152174385Y-90871705D01*
X152261739Y-90988261D01*
X152378295Y-91075615D01*
X152386704Y-91078767D01*
X152386705Y-91078768D01*
X152495960Y-91119726D01*
X152552725Y-91162367D01*
X152577425Y-91228929D01*
X152562218Y-91298278D01*
X152542825Y-91324759D01*
X152419590Y-91453717D01*
X152413104Y-91461727D01*
X152293098Y-91637649D01*
X152288000Y-91646623D01*
X152198338Y-91839783D01*
X152194775Y-91849470D01*
X152139389Y-92049183D01*
X152140912Y-92057607D01*
X152153292Y-92061000D01*
X154793344Y-92061000D01*
X154806875Y-92057027D01*
X154808180Y-92047947D01*
X154766214Y-91880875D01*
X154762894Y-91871124D01*
X154677972Y-91675814D01*
X154673105Y-91666739D01*
X154557426Y-91487926D01*
X154551136Y-91479757D01*
X154407293Y-91321677D01*
X154376241Y-91257831D01*
X154384635Y-91187333D01*
X154429812Y-91132564D01*
X154456256Y-91118895D01*
X154563297Y-91078767D01*
X154571705Y-91075615D01*
X154688261Y-90988261D01*
X154775615Y-90871705D01*
X154826745Y-90735316D01*
X154833500Y-90673134D01*
X154833500Y-88876866D01*
X154826745Y-88814684D01*
X154775615Y-88678295D01*
X154688261Y-88561739D01*
X154571705Y-88474385D01*
X154435316Y-88423255D01*
X154373134Y-88416500D01*
X153241371Y-88416500D01*
X153173250Y-88396498D01*
X153152276Y-88379595D01*
X151683770Y-86911089D01*
X151671384Y-86896677D01*
X151662851Y-86885082D01*
X151662846Y-86885077D01*
X151658508Y-86879182D01*
X151652930Y-86874443D01*
X151652927Y-86874440D01*
X151618232Y-86844965D01*
X151610716Y-86838035D01*
X151605021Y-86832340D01*
X151598880Y-86827482D01*
X151582749Y-86814719D01*
X151579345Y-86811928D01*
X151529297Y-86769409D01*
X151529295Y-86769408D01*
X151523715Y-86764667D01*
X151517199Y-86761339D01*
X151512150Y-86757972D01*
X151507021Y-86754805D01*
X151501284Y-86750266D01*
X151435125Y-86719345D01*
X151431225Y-86717439D01*
X151366192Y-86684231D01*
X151359084Y-86682492D01*
X151353441Y-86680393D01*
X151347678Y-86678476D01*
X151341050Y-86675378D01*
X151269583Y-86660513D01*
X151265299Y-86659543D01*
X151194390Y-86642192D01*
X151188788Y-86641844D01*
X151188785Y-86641844D01*
X151183236Y-86641500D01*
X151183238Y-86641464D01*
X151179245Y-86641225D01*
X151175053Y-86640851D01*
X151167885Y-86639360D01*
X151101675Y-86641151D01*
X151090479Y-86641454D01*
X151087072Y-86641500D01*
X148021009Y-86641500D01*
X147952888Y-86621498D01*
X147906395Y-86567842D01*
X147904097Y-86562306D01*
X147903767Y-86561703D01*
X147900615Y-86553295D01*
X147813261Y-86436739D01*
X147696705Y-86349385D01*
X147560316Y-86298255D01*
X147498134Y-86291500D01*
X146501866Y-86291500D01*
X146439684Y-86298255D01*
X146303295Y-86349385D01*
X146186739Y-86436739D01*
X146099385Y-86553295D01*
X146048255Y-86689684D01*
X146041500Y-86751866D01*
X146041500Y-88048134D01*
X144658500Y-88048134D01*
X144658500Y-86751866D01*
X144651745Y-86689684D01*
X144600615Y-86553295D01*
X144513261Y-86436739D01*
X144396705Y-86349385D01*
X144260316Y-86298255D01*
X144198134Y-86291500D01*
X143201866Y-86291500D01*
X143139684Y-86298255D01*
X143003295Y-86349385D01*
X142886739Y-86436739D01*
X142799385Y-86553295D01*
X142796233Y-86561703D01*
X142791923Y-86569575D01*
X142790259Y-86568664D01*
X142754337Y-86616490D01*
X142687776Y-86641193D01*
X142678991Y-86641500D01*
X141821009Y-86641500D01*
X141752888Y-86621498D01*
X141706395Y-86567842D01*
X141704097Y-86562306D01*
X141703767Y-86561703D01*
X141700615Y-86553295D01*
X141613261Y-86436739D01*
X141496705Y-86349385D01*
X141360316Y-86298255D01*
X141298134Y-86291500D01*
X140301866Y-86291500D01*
X140239684Y-86298255D01*
X140103295Y-86349385D01*
X139986739Y-86436739D01*
X139899385Y-86553295D01*
X139848255Y-86689684D01*
X139841500Y-86751866D01*
X139841500Y-88048134D01*
X138458500Y-88048134D01*
X138458500Y-86751866D01*
X138451745Y-86689684D01*
X138400615Y-86553295D01*
X138313261Y-86436739D01*
X138196705Y-86349385D01*
X138060316Y-86298255D01*
X137998134Y-86291500D01*
X137001866Y-86291500D01*
X136939684Y-86298255D01*
X136803295Y-86349385D01*
X136686739Y-86436739D01*
X136599385Y-86553295D01*
X136596233Y-86561703D01*
X136591923Y-86569575D01*
X136590259Y-86568664D01*
X136554337Y-86616490D01*
X136487776Y-86641193D01*
X136478991Y-86641500D01*
X135521009Y-86641500D01*
X135452888Y-86621498D01*
X135406395Y-86567842D01*
X135404097Y-86562306D01*
X135403767Y-86561703D01*
X135400615Y-86553295D01*
X135313261Y-86436739D01*
X135196705Y-86349385D01*
X135060316Y-86298255D01*
X134998134Y-86291500D01*
X134001866Y-86291500D01*
X133939684Y-86298255D01*
X133803295Y-86349385D01*
X133686739Y-86436739D01*
X133599385Y-86553295D01*
X133548255Y-86689684D01*
X133541500Y-86751866D01*
X133541500Y-88048134D01*
X132158500Y-88048134D01*
X132158500Y-86751866D01*
X132151745Y-86689684D01*
X132100615Y-86553295D01*
X132013261Y-86436739D01*
X131896705Y-86349385D01*
X131760316Y-86298255D01*
X131698134Y-86291500D01*
X130701866Y-86291500D01*
X130639684Y-86298255D01*
X130503295Y-86349385D01*
X130386739Y-86436739D01*
X130299385Y-86553295D01*
X130296233Y-86561703D01*
X130291923Y-86569575D01*
X130290259Y-86568664D01*
X130254337Y-86616490D01*
X130187776Y-86641193D01*
X130178991Y-86641500D01*
X129271009Y-86641500D01*
X129202888Y-86621498D01*
X129156395Y-86567842D01*
X129154097Y-86562306D01*
X129153767Y-86561703D01*
X129150615Y-86553295D01*
X129063261Y-86436739D01*
X128946705Y-86349385D01*
X128810316Y-86298255D01*
X128748134Y-86291500D01*
X127751866Y-86291500D01*
X127689684Y-86298255D01*
X127553295Y-86349385D01*
X127436739Y-86436739D01*
X127349385Y-86553295D01*
X127298255Y-86689684D01*
X127291500Y-86751866D01*
X127291500Y-88048134D01*
X125908500Y-88048134D01*
X125908500Y-86751866D01*
X125901745Y-86689684D01*
X125850615Y-86553295D01*
X125763261Y-86436739D01*
X125646705Y-86349385D01*
X125510316Y-86298255D01*
X125448134Y-86291500D01*
X124451866Y-86291500D01*
X124389684Y-86298255D01*
X124253295Y-86349385D01*
X124136739Y-86436739D01*
X124049385Y-86553295D01*
X123998255Y-86689684D01*
X123991500Y-86751866D01*
X123991500Y-88048134D01*
X123998255Y-88110316D01*
X124049385Y-88246705D01*
X124136739Y-88363261D01*
X124143919Y-88368642D01*
X124150269Y-88374992D01*
X124148634Y-88376627D01*
X124183579Y-88423359D01*
X124191500Y-88467329D01*
X124191500Y-92328991D01*
X124171498Y-92397112D01*
X124117842Y-92443605D01*
X124112306Y-92445903D01*
X124111704Y-92446232D01*
X124103295Y-92449385D01*
X123986739Y-92536739D01*
X123899385Y-92653295D01*
X123848255Y-92789684D01*
X123841500Y-92851866D01*
X123841500Y-93848134D01*
X123008500Y-93848134D01*
X123008500Y-85634500D01*
X123028502Y-85566379D01*
X123082158Y-85519886D01*
X123134500Y-85508500D01*
X156865500Y-85508500D01*
X156933621Y-85528502D01*
G37*
G04 #@! TD.AperFunction*
M02*
