G04 #@! TF.GenerationSoftware,KiCad,Pcbnew,6.0.7*
G04 #@! TF.CreationDate,2022-09-09T10:48:33-06:00*
G04 #@! TF.ProjectId,sdt_pa_diode,7364745f-7061-45f6-9469-6f64652e6b69,rev?*
G04 #@! TF.SameCoordinates,Original*
G04 #@! TF.FileFunction,Legend,Bot*
G04 #@! TF.FilePolarity,Positive*
%FSLAX46Y46*%
G04 Gerber Fmt 4.6, Leading zero omitted, Abs format (unit mm)*
G04 Created by KiCad (PCBNEW 6.0.7) date 2022-09-09 10:48:33*
%MOMM*%
%LPD*%
G01*
G04 APERTURE LIST*
%ADD10C,0.150000*%
%ADD11C,0.120000*%
G04 APERTURE END LIST*
D10*
X143011904Y-94552380D02*
X143011904Y-95361904D01*
X142964285Y-95457142D01*
X142916666Y-95504761D01*
X142821428Y-95552380D01*
X142630952Y-95552380D01*
X142535714Y-95504761D01*
X142488095Y-95457142D01*
X142440476Y-95361904D01*
X142440476Y-94552380D01*
X141440476Y-95552380D02*
X142011904Y-95552380D01*
X141726190Y-95552380D02*
X141726190Y-94552380D01*
X141821428Y-94695238D01*
X141916666Y-94790476D01*
X142011904Y-94838095D01*
X142800000Y-96652380D02*
X142800000Y-96890476D01*
X143038095Y-96795238D02*
X142800000Y-96890476D01*
X142561904Y-96795238D01*
X142942857Y-97080952D02*
X142800000Y-96890476D01*
X142657142Y-97080952D01*
X144126800Y-97153380D02*
X144126800Y-97391476D01*
X144364895Y-97296238D02*
X144126800Y-97391476D01*
X143888704Y-97296238D01*
X144269657Y-97581952D02*
X144126800Y-97391476D01*
X143983942Y-97581952D01*
X144766666Y-101407142D02*
X144814285Y-101454761D01*
X144957142Y-101502380D01*
X145052380Y-101502380D01*
X145195238Y-101454761D01*
X145290476Y-101359523D01*
X145338095Y-101264285D01*
X145385714Y-101073809D01*
X145385714Y-100930952D01*
X145338095Y-100740476D01*
X145290476Y-100645238D01*
X145195238Y-100550000D01*
X145052380Y-100502380D01*
X144957142Y-100502380D01*
X144814285Y-100550000D01*
X144766666Y-100597619D01*
X143814285Y-101502380D02*
X144385714Y-101502380D01*
X144100000Y-101502380D02*
X144100000Y-100502380D01*
X144195238Y-100645238D01*
X144290476Y-100740476D01*
X144385714Y-100788095D01*
X152766666Y-86907142D02*
X152814285Y-86954761D01*
X152957142Y-87002380D01*
X153052380Y-87002380D01*
X153195238Y-86954761D01*
X153290476Y-86859523D01*
X153338095Y-86764285D01*
X153385714Y-86573809D01*
X153385714Y-86430952D01*
X153338095Y-86240476D01*
X153290476Y-86145238D01*
X153195238Y-86050000D01*
X153052380Y-86002380D01*
X152957142Y-86002380D01*
X152814285Y-86050000D01*
X152766666Y-86097619D01*
X152385714Y-86097619D02*
X152338095Y-86050000D01*
X152242857Y-86002380D01*
X152004761Y-86002380D01*
X151909523Y-86050000D01*
X151861904Y-86097619D01*
X151814285Y-86192857D01*
X151814285Y-86288095D01*
X151861904Y-86430952D01*
X152433333Y-87002380D01*
X151814285Y-87002380D01*
X148566666Y-93207142D02*
X148614285Y-93254761D01*
X148757142Y-93302380D01*
X148852380Y-93302380D01*
X148995238Y-93254761D01*
X149090476Y-93159523D01*
X149138095Y-93064285D01*
X149185714Y-92873809D01*
X149185714Y-92730952D01*
X149138095Y-92540476D01*
X149090476Y-92445238D01*
X148995238Y-92350000D01*
X148852380Y-92302380D01*
X148757142Y-92302380D01*
X148614285Y-92350000D01*
X148566666Y-92397619D01*
X147709523Y-92635714D02*
X147709523Y-93302380D01*
X147947619Y-92254761D02*
X148185714Y-92969047D01*
X147566666Y-92969047D01*
X148352380Y-98333333D02*
X147876190Y-98000000D01*
X148352380Y-97761904D02*
X147352380Y-97761904D01*
X147352380Y-98142857D01*
X147400000Y-98238095D01*
X147447619Y-98285714D01*
X147542857Y-98333333D01*
X147685714Y-98333333D01*
X147780952Y-98285714D01*
X147828571Y-98238095D01*
X147876190Y-98142857D01*
X147876190Y-97761904D01*
X148352380Y-99285714D02*
X148352380Y-98714285D01*
X148352380Y-99000000D02*
X147352380Y-99000000D01*
X147495238Y-98904761D01*
X147590476Y-98809523D01*
X147638095Y-98714285D01*
X141957142Y-87183333D02*
X142004761Y-87135714D01*
X142052380Y-86992857D01*
X142052380Y-86897619D01*
X142004761Y-86754761D01*
X141909523Y-86659523D01*
X141814285Y-86611904D01*
X141623809Y-86564285D01*
X141480952Y-86564285D01*
X141290476Y-86611904D01*
X141195238Y-86659523D01*
X141100000Y-86754761D01*
X141052380Y-86897619D01*
X141052380Y-86992857D01*
X141100000Y-87135714D01*
X141147619Y-87183333D01*
X141052380Y-87516666D02*
X141052380Y-88135714D01*
X141433333Y-87802380D01*
X141433333Y-87945238D01*
X141480952Y-88040476D01*
X141528571Y-88088095D01*
X141623809Y-88135714D01*
X141861904Y-88135714D01*
X141957142Y-88088095D01*
X142004761Y-88040476D01*
X142052380Y-87945238D01*
X142052380Y-87659523D01*
X142004761Y-87564285D01*
X141957142Y-87516666D01*
D11*
X144622100Y-93474400D02*
X146577900Y-93474400D01*
X146577900Y-96725600D02*
X144622100Y-96725600D01*
X146577900Y-94736739D02*
X146577900Y-95463261D01*
X149161252Y-101960000D02*
X147738748Y-101960000D01*
X149161252Y-100140000D02*
X147738748Y-100140000D01*
X147988748Y-86690000D02*
X149411252Y-86690000D01*
X147988748Y-88510000D02*
X149411252Y-88510000D01*
X149411252Y-91760000D02*
X147988748Y-91760000D01*
X149411252Y-89940000D02*
X147988748Y-89940000D01*
X150810000Y-95422936D02*
X150810000Y-96877064D01*
X148990000Y-95422936D02*
X148990000Y-96877064D01*
X143140000Y-90211252D02*
X143140000Y-88788748D01*
X144960000Y-90211252D02*
X144960000Y-88788748D01*
M02*
